<svg height="512" viewBox="0 0 192 192" width="512" xmlns="http://www.w3.org/2000/svg"><path d="m168 64a23.856 23.856 0 0 0 -10.34 2.345l-16-16a24 24 0 1 0 -37.48 7.681l-31.2 78c-.324-.013-.647-.025-.974-.025a23.915 23.915 0 0 0 -7.177 1.1l-20.853-27.8a23.959 23.959 0 1 0 -12.799 9.599l20.853 27.8a24 24 0 1 0 35.8-4.727l31.2-78c.323.013.647.025.974.025a23.844 23.844 0 0 0 10.341-2.346l16 16.005a24 24 0 1 0 21.655-13.657zm-152 32a8 8 0 1 1 8 8 8.009 8.009 0 0 1 -8-8zm56 72a8 8 0 1 1 8-8 8.009 8.009 0 0 1 -8 8zm48-120a8 8 0 1 1 8-8 8.009 8.009 0 0 1 -8 8zm48 48a8 8 0 1 1 8-8 8.009 8.009 0 0 1 -8 8z"/></svg>