<?xml version="1.0" encoding="iso-8859-1"?>
<!-- Generator: Adobe Illustrator 19.0.0, SVG Export Plug-In . SVG Version: 6.00 Build 0)  -->
<svg version="1.1" id="Capa_1" xmlns="http://www.w3.org/2000/svg" xmlns:xlink="http://www.w3.org/1999/xlink" x="0px" y="0px"
	 viewBox="0 0 512.001 512.001" style="enable-background:new 0 0 512.001 512.001;" xml:space="preserve">
<path style="fill:#D2D2D2;" d="M44.723,32.202l-0.088-0.806h-7.238c-50.359,0-35.283,57.41-35.283,57.41h74.576l11.704-51.804
	L44.723,32.202z"/>
<path style="fill:#EFEDEE;" d="M427.538,423.195c-20.076-121.131,20.525-391.798-52.966-391.798H37.398
	c94.676,0,0,449.207,89.64,449.207h21.516l11.59-4.921l-3.636-0.709L427.538,423.195z"/>
<path style="fill:#D2D2D2;" d="M127.039,480.605c50.359,0,35.283-57.41,35.283-57.41h337.175c0,0,15.077,57.41-35.283,57.41H127.039
	z"/>
<g>
	<path style="fill:#3A484A;" d="M233.786,123.178H127.038c-4.268,0-7.726-3.459-7.726-7.726c0-4.267,3.458-7.726,7.726-7.726
		h106.748c4.268,0,7.726,3.459,7.726,7.726C241.512,119.719,238.054,123.178,233.786,123.178z"/>
	<path style="fill:#3A484A;" d="M378.885,383.084h-57.148c-4.268,0-7.726-3.459-7.726-7.726c0-4.267,3.458-7.726,7.726-7.726h57.148
		c4.268,0,7.726,3.459,7.726,7.726C386.611,379.624,383.153,383.084,378.885,383.084z"/>
	<path style="fill:#3A484A;" d="M364.196,169.36H127.038c-4.268,0-7.726-3.459-7.726-7.726s3.458-7.726,7.726-7.726h237.158
		c4.268,0,7.726,3.459,7.726,7.726S368.464,169.36,364.196,169.36z"/>
	<path style="fill:#3A484A;" d="M364.196,211.374H127.038c-4.268,0-7.726-3.459-7.726-7.726c0-4.267,3.458-7.726,7.726-7.726
		h237.158c4.268,0,7.726,3.459,7.726,7.726C371.922,207.915,368.464,211.374,364.196,211.374z"/>
	<path style="fill:#3A484A;" d="M312.624,253.389H127.038c-4.268,0-7.726-3.459-7.726-7.726s3.458-7.726,7.726-7.726h185.585
		c4.268,0,7.726,3.459,7.726,7.726S316.891,253.389,312.624,253.389z"/>
</g>
<path style="fill:#F2C42C;" d="M368.461,124.292c-45.397,45.397-72.058,98.899-75.709,143.539
	c44.64-3.65,98.143-30.312,143.539-75.709s72.059-98.899,75.709-143.539C467.361,52.234,413.857,78.895,368.461,124.292z"/>
<path style="fill:#E0B629;" d="M266.934,301.376c-1.977,0-3.955-0.754-5.464-2.263c-3.017-3.017-3.017-7.91,0-10.926
	l180.143-180.143c3.018-3.017,7.91-3.017,10.927,0c3.017,3.017,3.017,7.91,0,10.926L272.398,299.112
	C270.889,300.622,268.911,301.376,266.934,301.376z"/>
<g>
</g>
<g>
</g>
<g>
</g>
<g>
</g>
<g>
</g>
<g>
</g>
<g>
</g>
<g>
</g>
<g>
</g>
<g>
</g>
<g>
</g>
<g>
</g>
<g>
</g>
<g>
</g>
<g>
</g>
</svg>
