<svg height="480pt" viewBox="0 0 480.00236 480" width="480pt" xmlns="http://www.w3.org/2000/svg"><path d="m432 168h16v136h-16zm0 0"/><path d="m384 168h16v136h-16zm0 0"/><path d="m288 312v-16c-4.417969 0-8-3.582031-8-8s3.582031-8 8-8v-16h-104c-4.417969 0-8-3.582031-8-8s3.582031-8 8-8h112c3.667969 0 6.867188-2.496094 7.761719-6.054688l16-64c.597656-2.390624.0625-4.921874-1.453125-6.867187-1.519532-1.941406-3.84375-3.078125-6.308594-3.078125h-137.761719l-6.476562-25.941406c-.894531-3.5625-4.09375-6.058594-7.761719-6.058594h-24v16h17.753906l6.484375 25.945312 14.042969 56.152344c-8.105469 3.5625-13.574219 11.3125-14.21875 20.144532-.644531 8.828124 3.644531 17.289062 11.144531 21.992187-2.074219 3.574219-3.179687 7.632813-3.207031 11.765625 0 13.257812 10.746094 24 24 24s24-10.742188 24-24c-.027344-2.730469-.523438-5.4375-1.472656-8h50.945312c-.949218 2.5625-1.445312 5.269531-1.472656 8 0 13.257812 10.746094 24 24 24zm-16-128h29.753906l-4 16h-25.753906zm0 32h21.753906l-4 16h-17.753906zm-48-32h32v16h-32zm0 32h32v16h-32zm-16 16h-17.75l-4-16h21.75zm0-48v16h-25.75l-4-16zm-16 112c-4.417969 0-8-3.582031-8-8s3.582031-8 8-8 8 3.582031 8 8-3.582031 8-8 8zm0 0"/><path d="m480 472v-122.855469c.183594-14.644531-10.621094-27.105469-25.144531-29-7.878907-.796875-15.726563 1.78125-21.597657 7.097657-.417968.375-.800781.800781-1.226562 1.175781-5.171875-5.320313-12.253906-8.355469-19.675781-8.433594s-14.566407 2.804687-19.851563 8.015625h-1.007812c-8.339844-8.210938-20.929688-10.328125-31.496094-5.292969v-45.5625c.183594-14.644531-10.621094-27.105469-25.144531-29-7.882813-.808593-15.738281 1.761719-21.617188 7.070313-5.882812 5.308594-9.238281 12.863281-9.238281 20.785156v110.402344l-17.945312-20.960938c-9.824219-11.730468-27.296876-13.277344-39.027344-3.453125-11.730469 9.824219-13.273438 27.296875-3.453125 39.027344l62.234375 76.050781c1.519531 1.855469 3.792968 2.933594 6.191406 2.933594h160c4.417969 0 8-3.582031 8-8zm-16-8h-148.207031l-59.792969-73.117188c-3.988281-4.96875-3.273438-12.214843 1.613281-16.304687 4.882813-4.089844 12.140625-3.523437 16.332031 1.277344l32 37.355469c2.179688 2.527343 5.703126 3.433593 8.835938 2.273437 3.128906-1.160156 5.210938-4.144531 5.21875-7.484375v-132c0-3.402344 1.445312-6.644531 3.972656-8.921875 2.53125-2.277344 5.90625-3.371094 9.292969-3.011719 6.359375 1.035156 10.960937 6.636719 10.734375 13.078125v70.855469c0 4.417969 3.582031 8 8 8s8-3.582031 8-8c0-6.625 5.371094-12 12-12s12 5.375 12 12c0 4.417969 3.582031 8 8 8s8-3.582031 8-8c0-6.625 5.371094-12 12-12s12 5.375 12 12c0 4.417969 3.582031 8 8 8s8-3.582031 8-8c0-3.402344 1.445312-6.644531 3.972656-8.921875 2.53125-2.277344 5.90625-3.371094 9.292969-3.011719 6.359375 1.035156 10.960937 6.636719 10.734375 13.078125zm0 0"/><path d="m16 275.777344c-.046875-13.921875 5.761719-27.21875 16-36.648438v56.871094c0 3.3125 2.042969 6.28125 5.132812 7.46875 3.09375 1.183594 6.59375.34375 8.8125-2.117188l55.65625-61.804687c2.789063-3.117187 6.746094-4.941406 10.925782-5.042969 4.183594-.164062 8.234375 1.457032 11.152344 4.457032 5.476562 5.476562 5.957031 14.191406 1.121093 20.242187l-51.015625 63.765625c-2.402344 3-2.332031 7.28125.167969 10.199219l3.832031 4.464843c22.0625 25.960938 20.582032 64.492188-3.410156 88.679688-1.519531 1.503906-2.375 3.550781-2.375 5.6875v48h16v-44.796875c22.628906-24.867187 27.730469-61.046875 12.863281-91.203125h187.136719v-16h-197.488281l-.128907-.167969 46.882813-58.605469c9.660156-11.921874 9.199219-29.105468-1.09375-40.484374-10.292969-11.378907-27.34375-13.5625-40.171875-5.140626v-135.601562h128v-16h-152c-22.082031.027344-39.972656 17.921875-40 40v107.449219c-19.871094 11.800781-32.0390625 33.214843-32 56.328125v204.222656h16zm32-51.777344v-112c0-13.253906 10.746094-24 24-24h8v151.59375l-32 35.558594zm0 0"/><path d="m272 152h176c17.671875 0 32-14.324219 32-32v-88c0-17.671875-14.328125-32-32-32h-176c-17.671875 0-32 14.328125-32 32v88c0 17.675781 14.328125 32 32 32zm-16-120c0-8.835938 7.164062-16 16-16h176c8.835938 0 16 7.164062 16 16v88c0 8.835938-7.164062 16-16 16h-176c-8.835938 0-16-7.164062-16-16zm0 0"/><path d="m280 32h16c4.417969 0 8 3.582031 8 8v16c0 4.417969-3.582031 8-8 8h-16c-4.417969 0-8-3.582031-8-8v-16c0-4.417969 3.582031-8 8-8zm0 0"/><path d="m368 96c-.042969 9.484375 5.53125 18.097656 14.199219 21.945312 8.667969 3.851563 18.792969 2.207032 25.800781-4.183593 9.589844 8.714843 24.363281 8.246093 33.378906-1.0625 9.019532-9.304688 9.019532-24.089844 0-33.398438-9.015625-9.304687-23.789062-9.773437-33.378906-1.058593-7.007812-6.394532-17.132812-8.035157-25.800781-4.1875-8.667969 3.851562-14.242188 12.460937-14.199219 21.945312zm56-8c4.417969 0 8 3.582031 8 8s-3.582031 8-8 8-8-3.582031-8-8 3.582031-8 8-8zm-32 0c4.417969 0 8 3.582031 8 8s-3.582031 8-8 8-8-3.582031-8-8 3.582031-8 8-8zm0 0"/><path d="m272 104h16v16h-16zm0 0"/><path d="m304 104h16v16h-16zm0 0"/><path d="m336 104h16v16h-16zm0 0"/><path d="m424 32h16v16h-16zm0 0"/><path d="m392 32h16v16h-16zm0 0"/><path d="m360 32h16v16h-16zm0 0"/><path d="m120 104h16v16h-16zm0 0"/><path d="m152 104h16v16h-16zm0 0"/><path d="m184 104h16v16h-16zm0 0"/></svg>