<?xml version="1.0" encoding="iso-8859-1"?>
<!-- Generator: Adobe Illustrator 19.0.0, SVG Export Plug-In . SVG Version: 6.00 Build 0)  -->
<svg version="1.1" id="Layer_1" xmlns="http://www.w3.org/2000/svg" xmlns:xlink="http://www.w3.org/1999/xlink" x="0px" y="0px"
	 viewBox="0 0 512 512" style="enable-background:new 0 0 512 512;" xml:space="preserve">
<path style="fill:#F07B52;" d="M499.725,163.607L260.792,1.473c-2.893-1.963-6.69-1.964-9.583,0L12.275,163.607
	c-2.34,1.587-3.742,4.231-3.742,7.06v332.8c0,4.713,3.821,8.533,8.533,8.533h477.867c4.713,0,8.533-3.821,8.533-8.533v-332.8
	C503.467,167.838,502.066,165.194,499.725,163.607z"/>
<path style="fill:#E5563C;" d="M34.134,503.467v-332.8c0-2.829,1.402-5.473,3.742-7.061L268.8,6.907l-8.009-5.435
	c-2.893-1.963-6.69-1.964-9.583,0L12.275,163.606c-2.34,1.588-3.742,4.233-3.742,7.061v332.8c0,4.713,3.821,8.533,8.533,8.533h25.6
	C37.954,512,34.134,508.181,34.134,503.467z"/>
<path style="fill:#74757B;" d="M409.6,204.8H102.4c-4.713,0-8.533,3.821-8.533,8.533v290.133c0,4.713,3.821,8.533,8.533,8.533h307.2
	c4.713,0,8.533-3.821,8.533-8.533V213.334C418.134,208.621,414.313,204.8,409.6,204.8z"/>
<path style="fill:#606268;" d="M102.4,204.8c-4.713,0-8.533,3.821-8.533,8.533v290.133c0,4.713,3.821,8.533,8.533,8.533h17.067
	V204.8H102.4z"/>
<path style="fill:#C3C4C6;" d="M426.667,170.667H85.334c-4.713,0-8.533,3.821-8.533,8.533v34.133c0,4.713,3.821,8.533,8.533,8.533
	h341.333c4.713,0,8.533-3.821,8.533-8.533V179.2C435.2,174.488,431.379,170.667,426.667,170.667z"/>
<path style="fill:#AFB0B4;" d="M426.667,204.8H85.334c-4.713,0-8.533-3.821-8.533-8.533v17.067c0,4.713,3.821,8.533,8.533,8.533
	h341.333c4.713,0,8.533-3.821,8.533-8.533v-17.067C435.2,200.981,431.379,204.8,426.667,204.8z"/>
<g>
	<path style="fill:#E5563C;" d="M290.134,76.8h-68.267c-4.713,0-8.533-3.821-8.533-8.533c0-4.713,3.821-8.533,8.533-8.533h68.267
		c4.713,0,8.533,3.821,8.533,8.533C298.667,72.98,294.846,76.8,290.134,76.8z"/>
	<path style="fill:#E5563C;" d="M290.134,110.934h-68.267c-4.713,0-8.533-3.821-8.533-8.533s3.821-8.533,8.533-8.533h68.267
		c4.713,0,8.533,3.821,8.533,8.533S294.846,110.934,290.134,110.934z"/>
	<path style="fill:#E5563C;" d="M290.134,145.067h-68.267c-4.713,0-8.533-3.821-8.533-8.533c0-4.713,3.821-8.533,8.533-8.533h68.267
		c4.713,0,8.533,3.821,8.533,8.533C298.667,141.246,294.846,145.067,290.134,145.067z"/>
</g>
<g>
	<path style="fill:#FDDD85;" d="M204.8,273.067H102.4c-4.713,0-8.533,3.821-8.533,8.533V384c0,4.713,3.821,8.533,8.533,8.533
		l51.2,8.533l51.2-8.533c4.713,0,8.533-3.821,8.533-8.533V281.6C213.334,276.888,209.514,273.067,204.8,273.067z"/>
	<path style="fill:#FDDD85;" d="M204.8,392.534H102.4c-4.713,0-8.533,3.821-8.533,8.533v102.4c0,4.713,3.821,8.533,8.533,8.533
		h102.4c4.713,0,8.533-3.821,8.533-8.533v-102.4C213.334,396.355,209.514,392.534,204.8,392.534z"/>
</g>
<path style="fill:#FDD042;" d="M110.934,503.467v-102.4c0-4.713,3.821-8.533,8.533-8.533H102.4c-4.713,0-8.533,3.821-8.533,8.533
	v102.4c0,4.713,3.821,8.533,8.533,8.533h17.067C114.754,512,110.934,508.181,110.934,503.467z"/>
<path style="fill:#F2C127;" d="M170.667,392.534h-34.133V435.2c0,4.713,3.821,8.533,8.533,8.533h17.067
	c4.713,0,8.533-3.821,8.533-8.533V392.534z"/>
<path style="fill:#74757B;" d="M170.667,494.934h-34.133c-4.713,0-8.533-3.821-8.533-8.533s3.821-8.533,8.533-8.533h34.133
	c4.713,0,8.533,3.821,8.533,8.533S175.38,494.934,170.667,494.934z"/>
<path style="fill:#FDD042;" d="M110.934,384V281.6c0-4.713,3.821-8.533,8.533-8.533H102.4c-4.713,0-8.533,3.821-8.533,8.533V384
	c0,4.713,3.821,8.533,8.533,8.533h17.067C114.754,392.534,110.934,388.714,110.934,384z"/>
<path style="fill:#F2C127;" d="M170.667,273.067h-34.133v42.667c0,4.713,3.821,8.533,8.533,8.533h17.067
	c4.713,0,8.533-3.821,8.533-8.533V273.067z"/>
<path style="fill:#74757B;" d="M170.667,375.467h-34.133c-4.713,0-8.533-3.821-8.533-8.533s3.821-8.533,8.533-8.533h34.133
	c4.713,0,8.533,3.821,8.533,8.533S175.38,375.467,170.667,375.467z"/>
<path style="fill:#FDDD85;" d="M324.267,392.534h-102.4c-4.713,0-8.533,3.821-8.533,8.533v102.4c0,4.713,3.821,8.533,8.533,8.533
	h102.4c4.713,0,8.533-3.821,8.533-8.533v-102.4C332.8,396.355,328.98,392.534,324.267,392.534z"/>
<path style="fill:#FDD042;" d="M230.4,503.467v-102.4c0-4.713,3.821-8.533,8.533-8.533h-17.067c-4.713,0-8.533,3.821-8.533,8.533
	v102.4c0,4.713,3.821,8.533,8.533,8.533h17.067C234.221,512,230.4,508.181,230.4,503.467z"/>
<path style="fill:#F2C127;" d="M290.134,392.534H256V435.2c0,4.713,3.821,8.533,8.533,8.533H281.6c4.713,0,8.533-3.821,8.533-8.533
	V392.534z"/>
<path style="fill:#74757B;" d="M290.134,494.934H256c-4.713,0-8.533-3.821-8.533-8.533s3.821-8.533,8.533-8.533h34.133
	c4.713,0,8.533,3.821,8.533,8.533S294.846,494.934,290.134,494.934z"/>
<g>
</g>
<g>
</g>
<g>
</g>
<g>
</g>
<g>
</g>
<g>
</g>
<g>
</g>
<g>
</g>
<g>
</g>
<g>
</g>
<g>
</g>
<g>
</g>
<g>
</g>
<g>
</g>
<g>
</g>
</svg>
